<svg width="16" height="16" fill="none" xmlns="http://www.w3.org/2000/svg"><path d="M6.712.041A6.91 6.91 0 0 0 3.8 1.382a10.79 10.79 0 0 0-1.085 1.085A6.727 6.727 0 0 0 1.36 7.819c.278 1.563 1.143 3.202 2.555 4.845.929 1.08 2.378 2.393 3.515 3.185l.217.151h.706l.217-.151c.836-.583 1.933-1.523 2.75-2.359 1.15-1.177 1.957-2.267 2.543-3.437.422-.842.641-1.473.777-2.234a6.727 6.727 0 0 0-1.355-5.352A10.79 10.79 0 0 0 12.2 1.382 6.824 6.824 0 0 0 9.342.055C9.094.004 8.983 0 7.982.003c-.797.001-1.137.012-1.27.038m1.799 1.4a5.204 5.204 0 0 1 1.849.546 5.082 5.082 0 0 1 2.32 2.32c.68 1.356.75 2.757.211 4.243-.619 1.709-2.097 3.584-4.171 5.293-.405.333-.694.557-.72.557-.049 0-.843-.647-1.373-1.118a20.667 20.667 0 0 1-1.546-1.562c-1.357-1.569-2.107-3.033-2.294-4.475-.126-.977.058-1.991.533-2.938a5.082 5.082 0 0 1 2.32-2.32 5.17 5.17 0 0 1 2.871-.546M7.52 3.962a2.76 2.76 0 0 0-2.225 2.239 2.748 2.748 0 0 0 2.239 3.17 2.748 2.748 0 0 0 3.171-2.239 2.748 2.748 0 0 0-2.239-3.17c-.285-.05-.67-.05-.946 0m.911 1.53c.446.167.769.589.812 1.062A1.256 1.256 0 0 1 8.19 7.9c-.992.154-1.752-.885-1.309-1.787.157-.319.515-.601.852-.672.181-.038.527-.013.698.051" fill-rule="evenodd" fill="#000"/></svg>