<svg aria-hidden="true" style="position: absolute; width: 0; height: 0; overflow: hidden;" version="1.1" xmlns="http://www.w3.org/2000/svg" xmlns:xlink="http://www.w3.org/1999/xlink">
<defs>
<symbol id="icon-map-pin-converted" viewBox="0 0 32 32">
<path d="M13.424 0.082c-2.234 0.457-4.197 1.395-5.853 2.704l0.029-0.022c-0.781 0.68-1.49 1.389-2.148 2.144l-0.022 0.026c-1.817 2.274-2.915 5.19-2.915 8.363 0 0.827 0.075 1.637 0.218 2.423l-0.012-0.082c0.556 3.126 2.286 6.404 5.11 9.69 1.858 2.16 4.756 4.786 7.030 6.37l0.434 0.302h1.412l0.434-0.302c1.672-1.166 3.866-3.046 5.5-4.718 2.3-2.354 3.914-4.534 5.086-6.874 0.844-1.684 1.282-2.946 1.554-4.468 0.131-0.704 0.205-1.514 0.205-2.341 0-3.173-1.099-6.090-2.936-8.39l0.021 0.027c-0.68-0.781-1.389-1.49-2.144-2.148l-0.026-0.022c-1.597-1.268-3.523-2.196-5.627-2.638l-0.089-0.016c-0.496-0.102-0.718-0.11-2.72-0.104-1.594 0.002-2.274 0.024-2.54 0.076zM17.022 2.882c1.372 0.142 2.625 0.53 3.756 1.119l-0.058-0.027c2.026 1.011 3.629 2.614 4.613 4.581l0.027 0.059c1.36 2.712 1.5 5.514 0.422 8.486-1.238 3.418-4.194 7.168-8.342 10.586-0.81 0.666-1.388 1.114-1.44 1.114-0.098 0-1.686-1.294-2.746-2.236-1.093-0.995-2.102-2.014-3.056-3.083l-0.036-0.041c-2.714-3.138-4.214-6.066-4.588-8.95-0.252-1.954 0.116-3.982 1.066-5.876 1.011-2.026 2.614-3.629 4.581-4.613l0.059-0.027c1.373-0.72 2.999-1.142 4.724-1.142 0.358 0 0.713 0.018 1.062 0.054l-0.044-0.004zM15.040 7.924c-2.275 0.425-4.040 2.198-4.445 4.444l-0.005 0.034c-0.050 0.278-0.078 0.598-0.078 0.925 0 2.703 1.952 4.951 4.523 5.41l0.033 0.005c0.279 0.050 0.599 0.079 0.927 0.079 2.703 0 4.951-1.952 5.41-4.523l0.005-0.033c0.050-0.278 0.078-0.598 0.078-0.925 0-2.703-1.952-4.951-4.523-5.41l-0.033-0.005c-0.57-0.1-1.34-0.1-1.892 0zM16.862 10.984c0.892 0.334 1.538 1.178 1.624 2.124 0.006 0.063 0.009 0.137 0.009 0.212 0 1.247-0.909 2.282-2.1 2.478l-0.015 0.002c-1.984 0.308-3.504-1.77-2.618-3.574 0.314-0.638 1.030-1.202 1.704-1.344 0.362-0.076 1.054-0.026 1.396 0.102z"></path>
</symbol>
<symbol id="icon-clock-converted" viewBox="0 0 32 32">
<path d="M14.254 1.578c-4.869 0.608-8.939 3.548-11.103 7.65l-0.038 0.079c-1.114 2.158-1.621 4.251-1.621 6.693s0.507 4.534 1.621 6.693c1.766 3.429 4.798 5.974 8.538 7.17 1.515 0.485 2.904 0.67 4.696 0.629 1.629-0.038 2.714-0.211 4.067-0.65 4.628-1.517 8.175-5.161 9.529-9.745l0.026-0.103c0.398-1.389 0.51-2.266 0.51-3.994s-0.112-2.605-0.51-3.994c-1.64-5.589-6.402-9.726-12.222-10.425l-0.069-0.007c-0.85-0.099-2.592-0.098-3.424 0.003zM17.653 3.982c2.021 0.272 3.96 1.072 5.654 2.333 0.579 0.432 1.762 1.582 2.202 2.144 1.63 2.055 2.615 4.686 2.615 7.546 0 1.611-0.312 3.149-0.88 4.556l0.029-0.082c-0.48 1.169-1.073 2.179-1.787 3.088l0.021-0.028c-0.386 0.49-1.478 1.582-1.971 1.971-1.64 1.289-3.647 2.183-5.841 2.507l-0.068 0.008c-0.488 0.060-1.054 0.094-1.627 0.094s-1.139-0.034-1.694-0.1l0.067 0.006c-4.698-0.677-8.504-3.882-9.942-8.37-0.355-1.097-0.56-2.359-0.56-3.669 0-0.945 0.107-1.865 0.308-2.749l-0.016 0.083c0.773-3.494 3.211-6.595 6.424-8.173 2.267-1.114 4.6-1.498 7.066-1.166zM15.493 6.928c-0.137 0.069-0.255 0.152-0.357 0.252l0-0c-0.322 0.344-0.309 0.15-0.309 4.848 0 4.123 0.003 4.306 0.101 4.494 0.072 0.13 0.156 0.242 0.254 0.341l-0-0c0.083 0.077 1.43 0.779 2.992 1.56 2.683 1.338 2.859 1.418 3.136 1.418 0.012 0 0.026 0.001 0.040 0.001 0.31 0 0.592-0.117 0.804-0.31l-0.001 0.001c0.451-0.424 0.472-1.23 0.043-1.683-0.088-0.093-1.086-0.624-2.584-1.373l-2.44-1.222v-3.773c-0.002-3.558-0.008-3.786-0.101-3.987-0.202-0.401-0.611-0.672-1.082-0.672-0.18 0-0.351 0.039-0.504 0.11l0.008-0.003z"></path>
</symbol>
<symbol id="icon-close-converted" viewBox="0 0 32 32">
<path d="M7.493 6.874c-0.431 0.205-0.723 0.637-0.723 1.137 0 0.189 0.042 0.369 0.117 0.53l-0.003-0.008c0.083 0.184 0.95 1.083 3.718 3.854l3.61 3.613-3.61 3.613c-2.768 2.771-3.635 3.67-3.718 3.854-0.211 0.467-0.11 1.056 0.242 1.407 0.351 0.352 0.94 0.453 1.407 0.242 0.184-0.083 1.083-0.95 3.854-3.718l3.613-3.61 3.613 3.61c2.771 2.768 3.67 3.635 3.854 3.718 0.467 0.211 1.056 0.11 1.407-0.242 0.352-0.351 0.453-0.94 0.242-1.407-0.083-0.184-0.95-1.083-3.718-3.854l-3.61-3.613 3.61-3.613c2.768-2.771 3.635-3.67 3.718-3.854 0.211-0.467 0.11-1.056-0.242-1.407-0.351-0.352-0.94-0.453-1.407-0.242-0.184 0.083-1.083 0.95-3.854 3.718l-3.613 3.61-3.613-3.61c-2.771-2.768-3.67-3.635-3.854-3.718-0.305-0.138-0.753-0.142-1.040-0.010z"></path>
</symbol>
<symbol id="icon-eye-converted" viewBox="0 0 32 32">
<path d="M14.853 3.792c-3.019 0.246-5.947 1.514-8.72 3.773-0.738 0.602-2.405 2.27-3.075 3.080-0.951 1.138-1.852 2.4-2.654 3.73l-0.076 0.136-0.328 0.563v1.853l0.328 0.563c1.241 2.101 2.658 3.915 4.279 5.525l0.002 0.001c1.693 1.686 3.133 2.75 4.976 3.672 1.89 0.946 3.477 1.386 5.549 1.534 3.248 0.232 6.554-0.771 9.587-2.909 1.688-1.19 3.664-3.157 5.157-5.131 0.528-0.701 1.394-2 1.797-2.701l0.326-0.566v-1.83l-0.326-0.566c-0.636-1.060-1.229-1.941-1.861-2.791l0.064 0.090c-1.493-1.973-3.454-3.926-5.157-5.133-3.086-2.186-6.451-3.173-9.867-2.893zM17.787 7.088c1.99 0.37 3.866 1.242 5.626 2.611 1.214 0.947 2.56 2.314 3.667 3.728 0.574 0.734 1.72 2.446 1.72 2.573s-1.146 1.838-1.72 2.573c-1.107 1.414-2.453 2.781-3.667 3.728-1.763 1.373-3.622 2.235-5.653 2.619-0.886 0.168-2.634 0.168-3.52 0-2.309-0.437-4.349-1.462-6.347-3.192-1.153-1.022-2.185-2.129-3.104-3.328l-0.041-0.056c-0.592-0.776-1.547-2.224-1.547-2.344s0.955-1.568 1.547-2.344c0.961-1.255 1.993-2.363 3.121-3.364l0.024-0.021c2.006-1.73 4.115-2.79 6.32-3.178 0.835-0.146 0.906-0.15 2-0.131 0.707 0.011 1.154 0.048 1.574 0.126zM15.267 10.453c-1.265 0.186-2.37 0.762-3.216 1.599l0.001-0.001c-1.012 1.010-1.637 2.406-1.637 3.948 0 1.153 0.35 2.224 0.949 3.114l-0.013-0.020c0.754 1.146 1.915 1.963 3.309 2.333 0.446 0.118 0.624 0.136 1.341 0.136 0.722 0 0.894-0.018 1.352-0.139 2.005-0.518 3.552-2.066 4.062-4.031l0.009-0.039c0.122-0.458 0.139-0.63 0.139-1.352s-0.018-0.894-0.139-1.352c-0.648-2.451-2.718-4.128-5.206-4.219-0.089-0.004-0.193-0.006-0.298-0.006-0.229 0-0.456 0.011-0.679 0.033l0.028-0.002zM16.616 13.683c1.029 0.29 1.773 1.215 1.784 2.316v0.001c0 1.307-1.093 2.4-2.4 2.4-1.102-0.011-2.027-0.755-2.313-1.767l-0.004-0.017c-0.050-0.183-0.079-0.393-0.079-0.61 0-1.326 1.075-2.402 2.402-2.402 0.217 0 0.427 0.029 0.627 0.083l-0.017-0.004z"></path>
</symbol>
<symbol id="icon-eye-off-converted" viewBox="0 0 32 32">
<path d="M0.213 0.213l-0.213 0.214v1.835l5.699 5.71-0.627 0.568c-1.67 1.51-3.581 3.931-4.771 6.045l-0.301 0.534v1.806l0.328 0.563c1.241 2.101 2.658 3.915 4.279 5.525l0.002 0.001c1.693 1.686 3.133 2.75 4.976 3.672 1.405 0.735 3.041 1.258 4.773 1.473l0.070 0.007c0.763 0.093 2.477 0.077 3.253-0.030 2.151-0.288 4.093-0.98 5.817-2.001l-0.071 0.039 0.307-0.174 6.005 5.998h1.835l0.214-0.213 0.213-0.214v-1.838l-29.734-29.734h-1.838l-0.214 0.213zM14.778 3.792c-0.734 0.066-1.795 0.254-2.128 0.379-0.361 0.144-0.653 0.396-0.844 0.715l-0.004 0.008c-0.184 0.314-0.229 0.891-0.099 1.282 0.178 0.531 0.746 0.994 1.304 1.059 0.154 0.019 0.466-0.011 0.81-0.078 2.525-0.494 4.934-0.142 7.296 1.066 0.957 0.49 2.147 1.302 3.021 2.062 0.886 0.771 2.123 2.091 2.947 3.142 0.546 0.696 1.72 2.445 1.72 2.56 0 0.184-1.106 1.819-1.928 2.853-0.178 0.215-0.351 0.453-0.507 0.702l-0.016 0.028c-0.253 0.496-0.184 1.149 0.171 1.63 0.547 0.739 1.642 0.858 2.309 0.25 0.592-0.539 2.229-2.856 2.95-4.174l0.221-0.405v-1.797l-0.328-0.563c-0.419-0.718-1.28-2.010-1.795-2.693-1.493-1.973-3.454-3.926-5.157-5.133-1.36-0.963-3.024-1.81-4.48-2.278-1.287-0.419-2.768-0.661-4.306-0.661-0.407 0-0.81 0.017-1.209 0.050l0.052-0.003zM10.832 13.762c-0.328 0.687-0.52 1.494-0.52 2.345 0 1.54 0.628 2.934 1.641 3.939l0 0c1.006 1.013 2.4 1.641 3.94 1.641 0.851 0 1.657-0.191 2.378-0.534l-0.034 0.014 0.451-0.211 2.701 2.696-0.562 0.272c-1.573 0.763-3.686 1.205-5.362 1.123-3.834-0.187-7.57-2.542-10.797-6.802-0.523-0.693-1.47-2.133-1.47-2.237 0-0.102 0.587-1.037 1.114-1.77 0.926-1.281 1.92-2.406 3.012-3.428l0.013-0.012 0.624-0.57 3.080 3.080-0.211 0.451zM15.981 18.496c-0.307 0.021-0.872-0.112-1.218-0.288-0.738-0.374-1.27-1.275-1.27-2.152v-0.296l2.722 2.72-0.234 0.016z"></path>
</symbol>
<symbol id="icon-heart-converted" viewBox="0 0 32 32">
<path d="M8.453 2.832c-2.569 0.267-4.942 1.769-6.329 4.005-0.798 1.268-1.271 2.81-1.271 4.463 0 0.012 0 0.023 0 0.035v-0.002c0 1.903 0.564 3.58 1.748 5.199 0.375 0.513 12.474 12.644 12.81 12.843s0.843 0.199 1.179 0c0.336-0.199 12.434-12.33 12.81-12.843 1.184-1.618 1.748-3.296 1.748-5.199 0-0.013 0-0.028 0-0.043 0-2.332-0.944-4.443-2.472-5.971l0 0c-1.788-1.804-4.293-2.729-6.769-2.501-1.172 0.107-1.969 0.319-2.946 0.779-0.956 0.45-1.583 0.894-2.414 1.703l-0.546 0.534-0.546-0.534c-0.831-0.81-1.457-1.253-2.414-1.703-1.067-0.515-2.321-0.816-3.645-0.816-0.332 0-0.66 0.019-0.982 0.056l0.039-0.004zM10.345 5.31c0.665 0.116 1.261 0.311 1.814 0.58l-0.040-0.018c0.668 0.335 1.093 0.671 2.122 1.68 0.572 0.561 1.124 1.063 1.227 1.118 0.252 0.132 0.814 0.132 1.066 0 0.103-0.054 0.655-0.558 1.227-1.119 0.608-0.598 1.199-1.126 1.424-1.275 0.968-0.651 2.16-1.040 3.443-1.040 0.104 0 0.207 0.003 0.309 0.008l-0.014-0.001c0.79 0.046 1.359 0.185 2.166 0.53 1.502 0.642 2.751 2.010 3.28 3.59 0.207 0.588 0.327 1.265 0.327 1.971 0 1.365-0.449 2.626-1.206 3.642l0.012-0.016c-0.208 0.283-2.187 2.303-5.906 6.027l-5.594 5.6-5.594-5.6c-3.719-3.724-5.698-5.744-5.906-6.027-1.586-2.165-1.594-5.105-0.015-7.227 1.028-1.381 2.398-2.186 4.208-2.47 0.332-0.053 1.191-0.028 1.652 0.047z"></path>
</symbol>
<symbol id="icon-heart-filled-converted" viewBox="0 0 32 32">
<path d="M8.498 2.828c-2.039 0.23-3.831 1.139-5.177 2.493l-0 0c-1.525 1.534-2.468 3.648-2.468 5.982 0 0.010 0 0.020 0 0.030v-0.002c0 1.916 0.586 3.641 1.775 5.226 0.478 0.636 12.526 12.688 12.834 12.838 0.315 0.153 0.761 0.153 1.076 0 0.309-0.15 12.357-12.202 12.834-12.838 1.189-1.585 1.775-3.31 1.775-5.226 0-0.005 0-0.011 0-0.018 0-3.098-1.653-5.81-4.124-7.302l-0.038-0.021c-2.187-1.317-4.913-1.567-7.358-0.676-1.156 0.421-2.119 1.041-3.079 1.982l-0.545 0.534-0.548-0.532c-1.243-1.209-2.481-1.899-4.095-2.283-0.598-0.147-1.286-0.232-1.992-0.232-0.306 0-0.608 0.016-0.906 0.047l0.037-0.003z"></path>
</symbol>
<symbol id="icon-star" viewBox="0 0 32 32">
<path fill="#ffc531" style="fill: var(--color1, #ffc531); stroke: var(--color1, #ffc531)" stroke="#ffc531" stroke-linejoin="miter" stroke-linecap="butt" stroke-miterlimit="4" stroke-width="2.4" d="M12.4 9.394l3.6-6.822 3.6 6.822c0.318 0.603 0.899 1.025 1.571 1.141l7.601 1.315-5.376 5.532c-0.475 0.489-0.697 1.171-0.6 1.846l1.098 7.635-6.922-3.404c-0.612-0.301-1.329-0.301-1.941 0l-6.922 3.404 1.098-7.635c0.097-0.675-0.125-1.357-0.6-1.846l-5.376-5.532 7.601-1.315c0.672-0.116 1.252-0.538 1.571-1.141zM29.035 11.579v0zM7.767 27.031c0 0 0 0 0 0h-0z"></path>
</symbol>
<symbol id="icon-person" viewBox="0 0 32 32">
<path fill="#fbfbfb" style="fill: var(--color2, #fbfbfb)" d="M8 0h16c4.418 0 8 3.582 8 8v16c0 4.418-3.582 8-8 8h-16c-4.418 0-8-3.582-8-8v-16c0-4.418 3.582-8 8-8z"></path>
<path fill="#103931" style="fill: var(--color3, #103931)" d="M16 9.6c0.849 0 1.663 0.337 2.263 0.937s0.937 1.414 0.937 2.263-0.337 1.663-0.937 2.263c-0.6 0.6-1.414 0.937-2.263 0.937s-1.663-0.337-2.263-0.937c-0.6-0.6-0.937-1.414-0.937-2.263s0.337-1.663 0.937-2.263c0.6-0.6 1.414-0.937 2.263-0.937zM16 17.6c3.536 0 6.4 1.432 6.4 3.2v1.6h-12.8v-1.6c0-1.768 2.864-3.2 6.4-3.2z"></path>
</symbol>
<symbol id="icon-online" viewBox="0 0 32 32">
<path fill="#fbfbfb" style="fill: var(--color2, #fbfbfb)" d="M32 16c0 8.837-7.163 16-16 16s-16-7.163-16-16c0-8.837 7.163-16 16-16s16 7.163 16 16z"></path>
<path fill="#38cd3e" style="fill: var(--color4, #38cd3e)" d="M26.668 16c0 5.891-4.776 10.667-10.667 10.667s-10.667-4.776-10.667-10.667c0-5.891 4.776-10.667 10.667-10.667s10.667 4.776 10.667 10.667z"></path>
</symbol>
<symbol id="icon-fe_check" viewBox="0 0 32 32">
<path fill="#fbfbfb" style="fill: var(--color2, #fbfbfb)" d="M8 13.333l-2.667 2.667 8 8 13.333-13.333-2.667-2.667-10.667 10.667-5.333-5.333z"></path>
</symbol>
<symbol id="icon-chevron-down" viewBox="0 0 32 32">
<path fill="none" stroke="#fbfbfb" style="stroke: var(--color2, #fbfbfb)" stroke-linejoin="round" stroke-linecap="round" stroke-miterlimit="4" stroke-width="3.2" d="M8 12l8 8 8-8"></path>
</symbol>
<symbol id="icon-arrow-rotate" viewBox="0 0 28 32">
<path fill="#fbfbfb" style="fill: var(--color2, #fbfbfb)" d="M24.137 3.149c-0.145-1.029-1.096-1.747-2.126-1.602l-16.776 2.358c-1.029 0.145-1.747 1.097-1.602 2.126s1.097 1.747 2.126 1.602l14.912-2.096 2.096 14.912c0.145 1.029 1.096 1.747 2.126 1.602s1.747-1.096 1.602-2.126l-2.358-16.776zM3.386 31.604l20.391-27.060-3.007-2.266-20.391 27.060 3.007 2.266z"></path>
</symbol>
<symbol id="icon-arrow-normal" viewBox="0 0 40 32">
<path fill="#fbfbfb" style="fill: var(--color2, #fbfbfb)" d="M39.436 17.075c0.767-0.795 0.745-2.061-0.049-2.828l-12.948-12.504c-0.794-0.767-2.061-0.745-2.828 0.049s-0.745 2.061 0.049 2.828l11.509 11.115-11.114 11.509c-0.767 0.795-0.745 2.061 0.049 2.828s2.061 0.745 2.828-0.049l12.504-12.948zM2.037 18.314l35.995-0.628-0.070-3.999-35.995 0.628 0.070 3.999z"></path>
</symbol>
</defs>
</svg>
