<?xml version="1.0" encoding="UTF-8"?>
<svg xmlns="http://www.w3.org/2000/svg" xmlns:xlink="http://www.w3.org/1999/xlink" width="0" height="0">
<symbol id="icon-map-pin-converted" width="16" height="16" fill="none"><path d="M6.712.041A6.91 6.91 0 0 0 3.8 1.382a10.79 10.79 0 0 0-1.085 1.085A6.727 6.727 0 0 0 1.36 7.819c.278 1.563 1.143 3.202 2.555 4.845.929 1.08 2.378 2.393 3.515 3.185l.217.151h.706l.217-.151c.836-.583 1.933-1.523 2.75-2.359 1.15-1.177 1.957-2.267 2.543-3.437.422-.842.641-1.473.777-2.234a6.727 6.727 0 0 0-1.355-5.352A10.79 10.79 0 0 0 12.2 1.382 6.824 6.824 0 0 0 9.342.055C9.094.004 8.983 0 7.982.003c-.797.001-1.137.012-1.27.038m1.799 1.4a5.204 5.204 0 0 1 1.849.546 5.082 5.082 0 0 1 2.32 2.32c.68 1.356.75 2.757.211 4.243-.619 1.709-2.097 3.584-4.171 5.293-.405.333-.694.557-.72.557-.049 0-.843-.647-1.373-1.118a20.667 20.667 0 0 1-1.546-1.562c-1.357-1.569-2.107-3.033-2.294-4.475-.126-.977.058-1.991.533-2.938a5.082 5.082 0 0 1 2.32-2.32 5.17 5.17 0 0 1 2.871-.546M7.52 3.962a2.76 2.76 0 0 0-2.225 2.239 2.748 2.748 0 0 0 2.239 3.17 2.748 2.748 0 0 0 3.171-2.239 2.748 2.748 0 0 0-2.239-3.17c-.285-.05-.67-.05-.946 0m.911 1.53c.446.167.769.589.812 1.062A1.256 1.256 0 0 1 8.19 7.9c-.992.154-1.752-.885-1.309-1.787.157-.319.515-.601.852-.672.181-.038.527-.013.698.051" fill-rule="evenodd" fill="#000"/></symbol><symbol id="icon-clock-converted" width="20" height="20" fill="none"><path d="M8.909.986a9.076 9.076 0 0 0-6.963 4.831C1.25 7.166.933 8.474.933 10c0 1.526.317 2.834 1.013 4.183 1.104 2.143 2.999 3.734 5.336 4.481.947.303 1.815.419 2.935.393 1.018-.024 1.696-.132 2.542-.406a9.112 9.112 0 0 0 5.972-6.155c.249-.868.319-1.416.319-2.496s-.07-1.628-.319-2.496a9.085 9.085 0 0 0-7.682-6.52c-.531-.062-1.62-.061-2.14.002m2.124 1.503c1.263.17 2.475.67 3.534 1.458.362.27 1.101.989 1.376 1.34a7.622 7.622 0 0 1 1.103 7.513 7.985 7.985 0 0 1-1.104 1.913c-.241.306-.924.989-1.232 1.232a7.806 7.806 0 0 1-3.693 1.572 8.87 8.87 0 0 1-2.034 0c-2.936-.423-5.315-2.426-6.214-5.231a7.694 7.694 0 0 1-.167-3.96c.483-2.184 2.007-4.122 4.015-5.108 1.417-.696 2.875-.936 4.416-.729M9.683 4.33a.892.892 0 0 0-.223.157c-.201.215-.193.094-.193 3.03 0 2.577.002 2.691.063 2.809a.947.947 0 0 0 .159.213c.052.048.894.487 1.87.975 1.677.836 1.787.886 1.96.886a.748.748 0 0 0 .527-.193c.282-.265.295-.769.027-1.052-.055-.058-.679-.39-1.615-.858l-1.525-.764V7.175c-.001-2.224-.005-2.366-.063-2.492a.755.755 0 0 0-.987-.353" fill-rule="evenodd" fill="#000"/></symbol><symbol id="icon-close-converted" width="32" height="32" fill="none"><path d="M7.493 6.874a1.255 1.255 0 0 0-.609 1.659c.083.184.95 1.083 3.718 3.854L14.212 16l-3.61 3.613c-2.768 2.771-3.635 3.67-3.718 3.854-.211.467-.11 1.056.242 1.407.351.352.94.453 1.407.242.184-.083 1.083-.95 3.854-3.718L16 17.788l3.613 3.61c2.771 2.768 3.67 3.635 3.854 3.718.467.211 1.056.11 1.407-.242.352-.351.453-.94.242-1.407-.083-.184-.95-1.083-3.718-3.854L17.788 16l3.61-3.613c2.768-2.771 3.635-3.67 3.718-3.854.211-.467.11-1.056-.242-1.407-.351-.352-.94-.453-1.407-.242-.184.083-1.083.95-3.854 3.718L16 14.212l-3.613-3.61c-2.771-2.768-3.67-3.635-3.854-3.718-.305-.138-.753-.142-1.04-.01" fill-rule="evenodd" fill="#000"/></symbol><symbol id="icon-eye-converted" width="20" height="20" fill="none"><path d="M9.283 2.37c-1.887.154-3.717.946-5.45 2.358-.461.376-1.503 1.419-1.922 1.925A18.893 18.893 0 0 0 .205 9.069L0 9.421v1.158l.205.352a16.857 16.857 0 0 0 2.675 3.454c1.058 1.054 1.958 1.719 3.11 2.295 1.181.591 2.173.866 3.468.959 2.03.145 4.096-.482 5.992-1.818 1.055-.744 2.29-1.973 3.223-3.207.33-.438.871-1.25 1.123-1.688l.204-.354V9.428l-.204-.354a21.105 21.105 0 0 0-1.123-1.688c-.933-1.233-2.159-2.454-3.223-3.208-1.929-1.366-4.032-1.983-6.167-1.808m1.834 2.06c1.244.231 2.416.776 3.516 1.632.759.592 1.6 1.446 2.292 2.33C17.284 8.851 18 9.921 18 10c0 .079-.716 1.149-1.075 1.608-.692.884-1.533 1.738-2.292 2.33-1.102.858-2.264 1.397-3.533 1.637-.554.105-1.646.105-2.2 0-1.443-.273-2.718-.914-3.967-1.995a14.69 14.69 0 0 1-1.966-2.115C2.597 10.98 2 10.075 2 10c0-.075.597-.98.967-1.465a14.74 14.74 0 0 1 1.966-2.116c1.254-1.081 2.572-1.744 3.95-1.986.522-.091.566-.094 1.25-.082.442.007.721.03.984.079M9.542 6.533a3.583 3.583 0 0 0-2.01.999 3.486 3.486 0 0 0-.438 4.401c.471.716 1.197 1.227 2.068 1.458.279.074.39.085.838.085.451 0 .559-.011.845-.087a3.51 3.51 0 0 0 2.544-2.544c.076-.286.087-.394.087-.845 0-.451-.011-.559-.087-.845-.405-1.532-1.699-2.58-3.254-2.637a4.369 4.369 0 0 0-.593.015m.843 2.019A1.517 1.517 0 0 1 11.5 10c0 .817-.683 1.5-1.5 1.5a1.517 1.517 0 0 1-1.448-1.115 1.501 1.501 0 0 1 1.833-1.833" fill-rule="evenodd" fill="#000"/></symbol><symbol id="icon-eye-off-converted" width="20" height="20" fill="none"><path d="M.133.133 0 .267V1.414l1.781 1.785 1.781 1.784-.392.355C2.126 6.282.932 7.795.188 9.116L0 9.45v1.129l.205.352a16.857 16.857 0 0 0 2.675 3.454c1.058 1.054 1.958 1.719 3.11 2.295a9.013 9.013 0 0 0 3.027.925c.477.058 1.548.048 2.033-.019a9.595 9.595 0 0 0 3.591-1.226l.192-.109 1.876 1.874L18.586 20H19.733l.134-.133.133-.134v-1.149l-9.292-9.292L1.416 0H.267L.133.133M9.236 2.37c-.459.041-1.122.159-1.33.237a1.07 1.07 0 0 0-.53.452c-.115.196-.143.557-.062.801.111.332.466.621.815.662.096.012.291-.007.506-.049 1.578-.309 3.084-.089 4.56.666.598.306 1.342.814 1.888 1.289.554.482 1.327 1.307 1.842 1.964.341.435 1.075 1.528 1.075 1.6 0 .115-.691 1.137-1.205 1.783a4.169 4.169 0 0 0-.327.456c-.158.31-.115.718.107 1.019.342.462 1.026.536 1.443.156.37-.337 1.393-1.785 1.844-2.609l.138-.253V9.421l-.205-.352c-.262-.449-.8-1.256-1.122-1.683-.933-1.233-2.159-2.454-3.223-3.208-.85-.602-1.89-1.131-2.8-1.424a8.972 8.972 0 0 0-3.414-.384M6.77 8.601a3.468 3.468 0 0 0 .701 3.928 3.47 3.47 0 0 0 3.928.701l.282-.132.844.843.844.842-.351.17c-.983.477-2.304.753-3.351.702-2.396-.117-4.731-1.589-6.748-4.251C2.592 10.971 2 10.071 2 10.006c0-.064.367-.648.696-1.106a14.572 14.572 0 0 1 1.891-2.15l.39-.356.963.963.962.962-.132.282m3.218 2.959c-.192.013-.545-.07-.761-.18-.461-.234-.794-.797-.794-1.345V9.85l.851.85.85.85-.146.01" fill-rule="evenodd" fill="#000"/></symbol><symbol id="icon-heart-converted" width="26" height="26" fill="none"><path d="M6.868 2.301c-2.087.217-4.015 1.437-5.142 3.254A6.881 6.881 0 0 0 .693 9.208c0 1.546.458 2.909 1.42 4.224.305.417 10.135 10.273 10.408 10.435.273.162.685.162.958 0 .273-.162 10.103-10.018 10.408-10.435.962-1.315 1.42-2.678 1.42-4.224a6.865 6.865 0 0 0-2.008-4.887c-1.453-1.466-3.488-2.217-5.5-2.032-.952.087-1.6.259-2.394.633-.777.366-1.286.726-1.961 1.384L13 4.74l-.444-.434c-.675-.658-1.184-1.018-1.961-1.384a6.942 6.942 0 0 0-3.727-.621m1.537 2.013a5.494 5.494 0 0 1 1.441.457c.543.272.888.545 1.724 1.365.465.456.913.864.997.908.205.107.661.107.866 0 .084-.044.532-.453.997-.909.494-.486.974-.915 1.157-1.036a5.055 5.055 0 0 1 3.037-.839c.642.037 1.104.15 1.76.431 1.22.522 2.235 1.633 2.665 2.917a4.955 4.955 0 0 1-.705 4.547c-.169.23-1.777 1.871-4.799 4.897L13 21.602l-4.545-4.55c-3.022-3.026-4.63-4.667-4.799-4.897-1.289-1.759-1.295-4.148-.012-5.872.835-1.122 1.948-1.776 3.419-2.007.27-.043.968-.023 1.342.038" fill-rule="evenodd" fill="#000"/></symbol><symbol id="icon-heart-filled-converted" width="26" height="26" fill="none"><path d="M6.905 2.298a7.01 7.01 0 0 0-4.207 2.026A6.894 6.894 0 0 0 .693 9.208c0 1.557.476 2.958 1.442 4.246.388.517 10.177 10.309 10.428 10.431.256.124.618.124.874 0 .251-.122 10.04-9.914 10.428-10.431.966-1.288 1.442-2.689 1.442-4.246a6.926 6.926 0 0 0-3.382-5.965c-1.777-1.07-3.992-1.273-5.978-.549-.939.342-1.722.846-2.502 1.61l-.443.434-.445-.432c-1.01-.982-2.016-1.543-3.327-1.855a7.047 7.047 0 0 0-2.325-.153" fill="#103931" fill-rule="evenodd"/></symbol><symbol id="icon-online" width="14" height="14" viewBox="0 0 14 14" fill="none"><circle cx="7" cy="7" r="7" fill="#FBFBFB"/><circle cx="7.00065" cy="7.00004" r="4.66667" fill="#38CD3E"/></symbol><symbol id="icon-person" width="40" height="40" viewBox="0 0 40 40" fill="none"><rect width="40" height="40" rx="10" fill="#FBFBFB"/><path d="M20 12C21.0609 12 22.0783 12.4214 22.8284 13.1716C23.5786 13.9217 24 14.9391 24 16C24 17.0609 23.5786 18.0783 22.8284 18.8284C22.0783 19.5786 21.0609 20 20 20C18.9391 20 17.9217 19.5786 17.1716 18.8284C16.4214 18.0783 16 17.0609 16 16C16 14.9391 16.4214 13.9217 17.1716 13.1716C17.9217 12.4214 18.9391 12 20 12ZM20 22C24.42 22 28 23.79 28 26V28H12V26C12 23.79 15.58 22 20 22Z" fill="#103931"/></symbol><symbol id="icon-fe_check" width="30" height="30" viewBox="0 0 30 30" fill="none"><path fill-rule="evenodd" clip-rule="evenodd" d="M7.5 12.5L5 15L12.5 22.5L25 10L22.5 7.5L12.5 17.5L7.5 12.5Z" fill="#FBFBFB"/></symbol><symbol id="icon-chevron-down" width="20" height="20" viewBox="0 0 20 20" fill="none"><path d="M5 7.5L10 12.5L15 7.5" stroke="#FBFBFB" stroke-width="2" stroke-linecap="round" stroke-linejoin="round"/></symbol><symbol id="icon-arrow-rotate" viewBox="0 0 15 17" fill="none"><path d="M12.8229 1.67313C12.7461 1.12622 12.2404 0.745174 11.6935 0.822036L2.78109 2.0746C2.23418 2.15146 1.85313 2.65713 1.92999 3.20404C2.00685 3.75095 2.51252 4.13199 3.05943 4.05513L10.9816 2.94175L12.095 10.8639C12.1718 11.4108 12.6775 11.7918 13.2244 11.715C13.7713 11.6381 14.1524 11.1325 14.0755 10.5855L12.8229 1.67313ZM1.79864 16.7896L12.6313 2.41412L11.034 1.21049L0.201365 15.5859L1.79864 16.7896Z" fill="#FBFBFB"/></symbol><symbol id="icon-arrow-normal" viewBox="0 0 20 16" fill="none"><path d="M19.7179 8.53774C20.1015 8.14046 20.0905 7.50739 19.6932 7.12374L13.2191 0.871819C12.8219 0.48817 12.1888 0.49922 11.8051 0.8965C11.4215 1.29378 11.4325 1.92685 11.8298 2.3105L17.5845 7.86776L12.0273 13.6225C11.6436 14.0198 11.6547 14.6528 12.052 15.0365C12.4492 15.4201 13.0823 15.4091 13.466 15.0118L19.7179 8.53774ZM1.01873 9.15707L19.016 8.84293L18.9811 6.84324L0.983829 7.15738L1.01873 9.15707Z" fill="#FBFBFB"/></symbol><symbol id="icon-star" width="16" height="16" viewBox="0 0 16 16" fill="none"><g clip-path="url(#clip0_31_2512)"><path d="M6.20021 4.69703L8 1.28579L9.79979 4.69703C9.95896 4.9987 10.2491 5.20947 10.5851 5.26762L14.3856 5.92519L11.6975 8.69103C11.4598 8.93563 11.3489 9.27666 11.3975 9.61427L11.9465 13.4319L8.48537 11.7301C8.17929 11.5795 7.82071 11.5796 7.51463 11.7301L4.05348 13.4319L4.6025 9.61427C4.65105 9.27666 4.54024 8.93563 4.30252 8.69103L1.6144 5.92519L5.41486 5.26762C5.75095 5.20947 6.04104 4.9987 6.20021 4.69703ZM14.5177 5.78928L14.5175 5.78947L14.5177 5.78928ZM3.8834 13.5155C3.88344 13.5155 3.88349 13.5155 3.88353 13.5155L3.8834 13.5155Z" fill="#FFC531" stroke="#FFC531" stroke-width="1.2"/></g><defs><clipPath><rect width="16" height="16" fill="white"/></clipPath></defs></symbol></svg>